<svg id="_лой_1" data-name="‘лой_1" xmlns="http://www.w3.org/2000/svg" viewBox="0 0 2560.65 1635.44"><defs><style>.cls-1,.cls-4,.cls-6{fill:#3a86ff;}.cls-1,.cls-5{opacity:0.25;}.cls-2,.cls-6{opacity:0.5;}.cls-3{fill:#39f;}.cls-7{fill:#0ead69;}.cls-8{fill:#fff;}.cls-9{fill:#343a40;}</style></defs><path class="cls-1" d="M2655.41,1800.62c-150.84,0-2348.09.53-2349.36-3.36l-.22-.5a2.66,2.66,0,0,1-.21-.72c-.84-2-338.55-549.06,186.46-929.93,205.42-149-12.86-247.4,150.49-413.3,187.73-190.65,392.61,20.25,601.36-66.2,36.88-15.26,73.89-39.82,110.94-77.51,86.1-87.5,204.55-127.78,325.55-136.79,233.25-17.26,495.74,79.85,631.21,221.8,27.27,28.58,151.28,176.48,53.53,379.76-61.73,128.35,196.85,250.93,288.73,397.49C2887.5,1544,2657.53,1795.76,2655.41,1800.62Z" transform="translate(-197.94 -170.32)"/><g class="cls-2"><g class="cls-2"><path class="cls-3" d="M1819.09,466.28s16.24-151.93,92.86-243.43c10.18-12.15,30-4.74,29.91,11.12,0,.27,0,.53,0,.8C1941.18,261.85,1855.55,377.08,1819.09,466.28Z" transform="translate(-197.94 -170.32)"/></g><g class="cls-2"><path class="cls-3" d="M1810.18,509.83s75.12-190.58,206.4-276.07c8-5.22,19-3.5,24.46,4.31,3.59,5.08,5.27,13.07,1.47,25.63C2032.38,297.18,1886.2,411.27,1810.18,509.83Z" transform="translate(-197.94 -170.32)"/></g></g><g class="cls-2"><path class="cls-4" d="M1827,486.17s-18.5,136.63-43.71,131.62S1814.89,467,1814.89,467s-100.42-97.18-148.83-108.22c0,0,17.78,80-5.42,69s-49.55-95.62-49.55-95.62-115-63.39-158.8,2.69-24.07,113-7.42,123.52,133.64,47.75,125.59,61.87-94.76,12.2-134.12-16c0,0,8.72,135.6,74.27,150.65s98.28-17.75,138.62-7.71,65.57,30.18,42.39,34.23-87.39-25.17-128.13-8.71-72,24.56-17,56.26,163.4,59.31,199.65,21l4.54-4.8a25.67,25.67,0,0,1-4.54,4.8c8.78,10,15,45.66,18.66,72.65.3,4.49,1,10.81,2.36,19.5h0c.43,3.87.74,7,1,9.23,3.51,58.94-37.35,145.15-37.35,145.15l11.48,7.57c58-81.29,33.73-172,33.73-172-12.18-69.55,6.42-120.49,6.42-120.49S1917,685.7,1892.65,581.88C1892.65,581.88,1867.88,514.86,1827,486.17Z" transform="translate(-197.94 -170.32)"/></g><path class="cls-4" d="M2065.4,375.07S2035.06,469.45,2053,474s26.23-107.61,26.23-107.61,95.27-31.92,130.1-24.08c0,0-67.59,87.39-49.1,87.4s93-87.66,93-87.66,94.26-5.48,102.19,51S2336,473.77,2322,475.47s-101.5-10.44-100.65,1.21,57.69,37.29,92,31.2c0,0-47.68,85.27-94.87,74.72s-58.27-42-87.55-48-51.89-.75-38.11,9.07,64.5,10.76,85.83,34.06,39.09,38.25-6.4,41.77-124.39-12.16-136-48.28c-.5-1.58-1-3.08-1.45-4.52a18.5,18.5,0,0,0,1.45,4.52c-8.78,3.74-23.91,25-34.62,41.36-1.58,2.81-4,6.69-7.58,11.91h0c-1.47,2.38-2.65,4.33-3.47,5.69C1969.91,667.36,1969.7,736,1969.7,736l-9.79,1.35c-12.45-70.72,31.41-122,31.41-122,29.46-41.35,33.18-80.16,33.18-80.16s-79.29-58.48-31.34-118.3C1993.16,416.83,2030,381,2065.4,375.07Z" transform="translate(-197.94 -170.32)"/><g class="cls-2"><path class="cls-4" d="M2145.15,816.86s-143,8.12-139.8,34.63S2164,831,2164,831s92.51,111.82,100,162.83c0,0-152.88-45.7-143.3-20.79s166.45,79.86,166.45,79.86S2343.52,1177,2271.56,1217s-118.88,15.8-128.48-2.29-38.64-142.22-53.91-135-20.28,97.12,5.72,140.14c0,0-139.68-20-150-89.06s26.32-100.32,19.18-142.9-25.94-70.32-32-46.64,19,92.5-1.33,133.35-31.24,72.55-59.61,13.07-48.21-174-5.57-208.4l5.33-4.31a26.16,26.16,0,0,0-5.33,4.31c-9.61-9.89-46.07-19.26-73.72-25.18-4.62-.68-11.11-2-20-4h0c-4-.75-7.21-1.33-9.47-1.73-60.75-8.4,20.56-6.58,20.56-6.58,71,18.22,125.26,3.08,125.26,3.08s37.64-137.23,143.16-103.68C2051.36,741.17,2118.75,772.24,2145.15,816.86Z" transform="translate(-197.94 -170.32)"/></g><g class="cls-5"><polygon class="cls-4" points="641.85 591.49 614.55 411.64 824.82 329.43 825.53 331.25 616.71 412.88 643.78 591.19 641.85 591.49"/></g><g class="cls-5"><rect class="cls-4" x="681.95" y="655.31" width="172.88" height="1.95" transform="translate(-390.61 798.19) rotate(-58.5)"/></g><path class="cls-4" d="M1031.8,488.87a14.65,14.65,0,1,1-20.48,3.11A14.66,14.66,0,0,1,1031.8,488.87Z" transform="translate(-197.94 -170.32)"/><path class="cls-4" d="M849.44,749.87A14.65,14.65,0,1,1,829,753,14.66,14.66,0,0,1,849.44,749.87Z" transform="translate(-197.94 -170.32)"/><path class="cls-4" d="M733.53,716a14.65,14.65,0,1,1-20.47,3.11A14.64,14.64,0,0,1,733.53,716Z" transform="translate(-197.94 -170.32)"/><g class="cls-2"><path class="cls-4" d="M822.25,570.79a14.65,14.65,0,1,1-20.48,3.11A14.64,14.64,0,0,1,822.25,570.79Z" transform="translate(-197.94 -170.32)"/></g><g class="cls-5"><polygon class="cls-4" points="2336.1 1328.51 2334.55 1327.37 2400.39 1245.37 2324.8 1148.34 2326.36 1147.22 2402.83 1245.38 2336.1 1328.51"/></g><ellipse class="cls-4" cx="2325.58" cy="1147.78" rx="14.65" ry="14.07"/><g class="cls-2"><path class="cls-4" d="M2590.66,1416.19a8.35,8.35,0,1,1,8.34,8A8.19,8.19,0,0,1,2590.66,1416.19Z" transform="translate(-197.94 -170.32)"/></g><g class="cls-2"><ellipse class="cls-4" cx="2335.76" cy="1327.94" rx="8.34" ry="8.01"/></g><polygon class="cls-1" points="1551 1461.41 1550.18 1459.65 1771.39 1356.23 2055.27 1356.23 2223.21 1282.23 2224 1284.01 2055.68 1358.18 1771.82 1358.18 1551 1461.41"/><g class="cls-5"><rect class="cls-4" x="2362.65" y="1454.58" width="1.95" height="239.47" transform="translate(-207.09 2964.49) rotate(-67)"/></g><path class="cls-4" d="M1733.88,1630.85a14.65,14.65,0,1,1,14.65,14.65A14.65,14.65,0,0,1,1733.88,1630.85Z" transform="translate(-197.94 -170.32)"/><g class="cls-2"><path class="cls-6" d="M1963.43,1527.5a8.47,8.47,0,1,1,8.47,8.47A8.47,8.47,0,0,1,1963.43,1527.5Z" transform="translate(-197.94 -170.32)"/></g><path class="cls-4" d="M2243.19,1527.5a14.65,14.65,0,1,1,14.64,14.65A14.63,14.63,0,0,1,2243.19,1527.5Z" transform="translate(-197.94 -170.32)"/><g class="cls-2"><path class="cls-4" d="M2406.9,1453.45a14.65,14.65,0,1,1,14.64,14.64A14.64,14.64,0,0,1,2406.9,1453.45Z" transform="translate(-197.94 -170.32)"/></g><g class="cls-2"><path class="cls-4" d="M2459.2,1621.11a14.65,14.65,0,1,1,14.64,14.64A14.64,14.64,0,0,1,2459.2,1621.11Z" transform="translate(-197.94 -170.32)"/></g><polygon class="cls-1" points="2002.29 1477.1 1898.87 1477.1 1797.74 1424.36 1798.54 1422.61 1899.3 1475.15 2002.29 1475.15 2002.29 1477.1"/><g class="cls-2"><ellipse class="cls-4" cx="1998.87" cy="1476.13" rx="13.76" ry="14.65"/></g><g class="cls-2"><path class="cls-4" d="M1983,1593.81c0-8.09,6.16-14.64,13.76-14.64s13.76,6.55,13.76,14.64-6.16,14.65-13.76,14.65S1983,1601.9,1983,1593.81Z" transform="translate(-197.94 -170.32)"/></g><path class="cls-4" d="M2089.67,1646.45a6.89,6.89,0,1,1,6.88,7.32A7.11,7.11,0,0,1,2089.67,1646.45Z" transform="translate(-197.94 -170.32)"/><path class="cls-7" d="M877.72,1800.64h75.09c4-3.41-2.79-11.16-9.9-11.68-3.09-.24-7,.41-11.46,1.35-1-13.72-6.94-75.42-29.18-72.94-25,2.77,0,27.17,7.07,41.61,5.24,10.7,10.76,26,13.29,33.28-2,.44-4.13.87-6.28,1.27-3.32-10.18-15.65-44.41-31.33-42.42-18.42,2.34-11,16.06,2,24.21,9.57,6,21.33,14.51,26.92,18.62a80.71,80.71,0,0,1-14.69,1.18C886.43,1794.81,880.15,1798.6,877.72,1800.64Z" transform="translate(-197.94 -170.32)"/><path class="cls-7" d="M2297.82,1800.64h-76c-4.07-3.45,2.82-11.3,10-11.83,3.13-.23,7.09.42,11.61,1.37,1-13.89,7-76.35,29.53-73.84,25.32,2.81,0,27.51-7.16,42.13-5.3,10.83-10.89,26.36-13.44,33.69,2,.44,4.18.88,6.35,1.28,3.36-10.3,15.84-45,31.72-42.94,18.64,2.37,11.15,16.26-2.07,24.51-9.69,6.06-21.59,14.68-27.25,18.85a80.84,80.84,0,0,0,14.87,1.19C2289,1794.74,2295.36,1798.58,2297.82,1800.64Z" transform="translate(-197.94 -170.32)"/><path class="cls-7" d="M1439.78,1710.29c6.27,2.54,28.65.48,29.38-1.3s-13.92-18.85-20.18-21.39a12.24,12.24,0,0,0-9.2,22.69Z" transform="translate(-197.94 -170.32)"/><path class="cls-7" d="M1496.25,1721c-3.51,5.78-5.1,28.2-3.45,29.2s20.84-10.68,24.36-16.46a12.24,12.24,0,0,0-20.91-12.74Z" transform="translate(-197.94 -170.32)"/><path class="cls-7" d="M1466.08,1764.86c6.44,2.05,28.61-1.7,29.19-3.54s-15.3-17.73-21.75-19.79a12.24,12.24,0,0,0-7.44,23.33Z" transform="translate(-197.94 -170.32)"/><path class="cls-7" d="M1498.69,1786.56c0-.51-2.5-51.26-30.29-77.46l.59-.63c28,26.44,30.53,77.54,30.56,78Z" transform="translate(-197.94 -170.32)"/><path class="cls-7" d="M1591.44,1711.38c-3.9,2.59-19.38,4.3-20.12,3.18s6.84-14.72,10.74-17.31a8.48,8.48,0,1,1,9.38,14.13Z" transform="translate(-197.94 -170.32)"/><path class="cls-7" d="M1554.58,1726.45c3.19,3.44,7.37,18.44,6.39,19.35s-15.64-4.37-18.82-7.81a8.48,8.48,0,0,1,12.43-11.54Z" transform="translate(-197.94 -170.32)"/><path class="cls-7" d="M1581.14,1752.07c-4.09,2.29-19.66,2.81-20.31,1.64s7.94-14.16,12-16.44a8.48,8.48,0,1,1,8.28,14.8Z" transform="translate(-197.94 -170.32)"/><path class="cls-7" d="M1562,1771.32c0-.35-5.39-35.15,9.85-56.79l-.49-.34c-15.38,21.84-10,56.87-9.95,57.22Z" transform="translate(-197.94 -170.32)"/><path class="cls-7" d="M1534.49,1783.6l-1.77-.28c-7-90.09-34.47-154.75-34.86-155.62l1.61-.7C1499.86,1627.89,1527.57,1693,1534.49,1783.6Z" transform="translate(-197.94 -170.32)"/><path class="cls-8" d="M1479.2,1618.63c3.39,3.84,19.28,10,20.37,9.06s-3.06-17.5-6.45-21.35a9.28,9.28,0,0,0-13.92,12.29Z" transform="translate(-197.94 -170.32)"/><path class="cls-8" d="M1503.54,1605.23c-3.06,4.11-5.84,20.93-4.67,21.8s16.5-6.6,19.56-10.71a9.28,9.28,0,0,0-14.89-11.09Z" transform="translate(-197.94 -170.32)"/><path class="cls-8" d="M1521.82,1623.11c-5-1.34-21.62,2.22-22,3.63s12.17,12.94,17.12,14.28a9.28,9.28,0,0,0,4.88-17.91Z" transform="translate(-197.94 -170.32)"/><path class="cls-8" d="M1510.55,1645.41c-.49-5.1-9.73-19.43-11.19-19.29s-7.78,16-7.28,21.08a9.28,9.28,0,0,0,18.47-1.79Z" transform="translate(-197.94 -170.32)"/><path class="cls-8" d="M1485.27,1644.31c4.54-2.38,14.31-16.35,13.63-17.64s-17.72-1.18-22.26,1.21a9.28,9.28,0,1,0,8.63,16.43Z" transform="translate(-197.94 -170.32)"/><path class="cls-7" d="M1495.89,1626.19a3.05,3.05,0,1,1,2.53,3.5A3,3,0,0,1,1495.89,1626.19Z" transform="translate(-197.94 -170.32)"/><path class="cls-7" d="M1534,1691.49c-5,6.2-10.49,32.22-8.72,33.66s26.13-9.19,31.18-15.4a14.47,14.47,0,1,0-22.46-18.26Z" transform="translate(-197.94 -170.32)"/><path class="cls-7" d="M1392.2,1708.66c.36.53,16.49,27.8,31.63,71.64-.62-.18-1.15-.26-1.78-.44-15-43.13-30.74-69.86-31.1-70.4Z" transform="translate(-197.94 -170.32)"/><path class="cls-8" d="M1373.63,1703.68c3.39,3,17.93,6.51,18.78,5.54s-4.69-14.88-8.08-17.83a8.15,8.15,0,1,0-10.7,12.29Z" transform="translate(-197.94 -170.32)"/><path class="cls-8" d="M1393.28,1689.22c-2.2,3.93-2.68,18.89-1.56,19.51s13.6-7.64,15.79-11.57a8.15,8.15,0,1,0-14.23-7.94Z" transform="translate(-197.94 -170.32)"/><path class="cls-8" d="M1411.24,1702.68c-4.46-.6-18.56,4.41-18.73,5.69s12.09,9.86,16.55,10.46a8.15,8.15,0,1,0,2.18-16.15Z" transform="translate(-197.94 -170.32)"/><path class="cls-8" d="M1404,1723.39c-1-4.39-10.71-15.8-12-15.51s-4.93,14.8-3.91,19.19a8.15,8.15,0,1,0,15.88-3.68Z" transform="translate(-197.94 -170.32)"/><path class="cls-8" d="M1381.87,1725.34c3.67-2.59,10.58-15.88,9.84-16.93s-15.57,1-19.25,3.62a8.15,8.15,0,1,0,9.41,13.31Z" transform="translate(-197.94 -170.32)"/><path class="cls-7" d="M1389,1708.34a2.69,2.69,0,1,1,2.61,2.76A2.68,2.68,0,0,1,1389,1708.34Z" transform="translate(-197.94 -170.32)"/><path class="cls-7" d="M1419.2,1738c-2.83,4.61-4.17,22.52-2.86,23.33s16.7-8.48,19.53-13.08A9.78,9.78,0,0,0,1419.2,1738Z" transform="translate(-197.94 -170.32)"/><path class="cls-7" d="M1631.31,1785l1.93-.3c7.61-98.47,37.68-169.13,38.1-170.09l-1.76-.76C1669.16,1614.81,1638.87,1685.93,1631.31,1785Z" transform="translate(-197.94 -170.32)"/><path class="cls-8" d="M1691.74,1604.69c-3.71,4.2-21.07,11-22.27,9.9s3.35-19.13,7.06-23.33a10.15,10.15,0,1,1,15.21,13.43Z" transform="translate(-197.94 -170.32)"/><path class="cls-8" d="M1665.13,1590c3.35,4.5,6.39,22.88,5.11,23.83s-18-7.21-21.38-11.7a10.15,10.15,0,0,1,16.27-12.13Z" transform="translate(-197.94 -170.32)"/><path class="cls-8" d="M1645.16,1609.59c5.41-1.48,23.63,2.42,24,4s-13.31,14.14-18.71,15.61a10.14,10.14,0,1,1-5.34-19.57Z" transform="translate(-197.94 -170.32)"/><path class="cls-8" d="M1657.47,1634c.54-5.58,10.64-21.24,12.23-21.08s8.51,17.45,8,23a10.15,10.15,0,0,1-20.2-2Z" transform="translate(-197.94 -170.32)"/><path class="cls-8" d="M1685.11,1632.76c-5-2.61-15.65-17.87-14.91-19.29s19.38-1.28,24.34,1.32a10.15,10.15,0,1,1-9.43,18Z" transform="translate(-197.94 -170.32)"/><path class="cls-7" d="M1673.5,1613a3.34,3.34,0,1,0-2.77,3.82A3.34,3.34,0,0,0,1673.5,1613Z" transform="translate(-197.94 -170.32)"/><path class="cls-7" d="M1626.82,1710.68c5.52,6.78,11.47,35.23,9.53,36.8s-28.57-10-34.08-16.83a15.82,15.82,0,0,1,24.55-20Z" transform="translate(-197.94 -170.32)"/><path class="cls-7" d="M1658.94,1717.13c-7.77,4-24.64,27.67-23.49,29.88s30.19,2.26,38-1.74a15.82,15.82,0,1,0-14.48-28.14Z" transform="translate(-197.94 -170.32)"/><path class="cls-7" d="M1370.74,1799s8.9-23.4,41.21-24.87,54.57,17.63,81.27,8.81,70.89-28.71,112.69-15.46,48.85,31.52,48.85,31.52Z" transform="translate(-197.94 -170.32)"/><rect class="cls-9" x="39.92" y="1627.74" width="2474.94" height="7.69" rx="3.04"/></svg>