<?xml version="1.0"?>
<svg xmlns="http://www.w3.org/2000/svg" xmlns:xlink="http://www.w3.org/1999/xlink" xmlns:svgjs="http://svgjs.com/svgjs" version="1.1" width="512" height="512" x="0" y="0" viewBox="0 0 423.184 423.184" style="enable-background:new 0 0 512 512" xml:space="preserve"><g>
<path xmlns="http://www.w3.org/2000/svg" style="" d="M407.51,0H266.971c-8.882,0-15.673,6.792-15.673,15.673s6.792,15.673,15.673,15.673h102.922  L264.882,136.359c-28.212-22.988-63.739-37.094-102.922-37.094C72.62,99.265,0,171.886,0,261.224s72.62,161.959,161.959,161.959  s161.959-72.62,161.959-161.959c0-39.184-14.106-74.71-37.094-102.922L391.837,53.29v102.922c0,8.882,6.792,15.673,15.673,15.673  s15.673-6.792,15.673-15.673V15.673C423.184,6.792,416.392,0,407.51,0z M161.959,391.837c-72.098,0-130.612-58.514-130.612-130.612  s58.514-130.612,130.612-130.612s130.612,58.514,130.612,130.612S234.057,391.837,161.959,391.837z" fill="#6c757d" data-original="#3a2c51"/>
<g xmlns="http://www.w3.org/2000/svg">
</g>
<g xmlns="http://www.w3.org/2000/svg">
</g>
<g xmlns="http://www.w3.org/2000/svg">
</g>
<g xmlns="http://www.w3.org/2000/svg">
</g>
<g xmlns="http://www.w3.org/2000/svg">
</g>
<g xmlns="http://www.w3.org/2000/svg">
</g>
<g xmlns="http://www.w3.org/2000/svg">
</g>
<g xmlns="http://www.w3.org/2000/svg">
</g>
<g xmlns="http://www.w3.org/2000/svg">
</g>
<g xmlns="http://www.w3.org/2000/svg">
</g>
<g xmlns="http://www.w3.org/2000/svg">
</g>
<g xmlns="http://www.w3.org/2000/svg">
</g>
<g xmlns="http://www.w3.org/2000/svg">
</g>
<g xmlns="http://www.w3.org/2000/svg">
</g>
<g xmlns="http://www.w3.org/2000/svg">
</g>
</g></svg>
