<svg id="OBJECTS" xmlns="http://www.w3.org/2000/svg" xmlns:xlink="http://www.w3.org/1999/xlink" viewBox="0 0 520.47 362.02"><defs><style>.cls-1{fill:none;}.cls-2{fill:#40649f;}.cls-3{fill:#4ea2e5;}.cls-4{fill:#1c344d;}.cls-5{fill:#f7f7ff;}.cls-6{fill:#b0a8c6;}.cls-7{fill:#e9e4f2;}.cls-8{clip-path:url(#clip-path);}.cls-9{fill:#cec7dd;}.cls-10{fill:#f2f0f7;}.cls-11{fill:#5c8bc6;}.cls-12{fill:#9c95b5;}.cls-13{fill:#8a83a5;}.cls-14{fill:#338ac4;}.cls-15{fill:#fff;}.cls-16{clip-path:url(#clip-path-2);}</style><clipPath id="clip-path"><rect class="cls-1" x="228.2" y="178.42" width="223.75" height="98.17"/></clipPath><clipPath id="clip-path-2"><polygon class="cls-1" points="195.43 178.42 108.95 178.42 108.95 318.45 195.43 318.58 195.43 178.42"/></clipPath></defs><rect class="cls-2" x="54.81" y="335.43" width="449.57" height="16.6"/><rect class="cls-3" x="92.24" width="374.7" height="15.95"/><rect class="cls-4" x="54.81" y="27.49" width="35.68" height="6.02"/><rect class="cls-4" x="54.81" y="66.16" width="35.68" height="6.02"/><rect class="cls-5" x="77.24" y="30.85" width="404.7" height="289.33"/><rect class="cls-2" x="98.66" y="168.55" width="107.06" height="160.29"/><rect class="cls-6" x="108.95" y="178.42" width="86.48" height="150.41"/><rect class="cls-2" x="220.5" y="168.55" width="239.15" height="127.61"/><rect class="cls-7" x="108.95" y="178.42" width="86.48" height="120.24"/><rect class="cls-7" x="228.2" y="178.42" width="223.75" height="98.17"/><g class="cls-8"><path class="cls-9" d="M351.83,247.2s-.78,2.59-1,3.51-1,2.68-1.35,2.57.39-3.54.18-3.74-1.83,1.55-2,2,.36,3.93,0,3.95-1.25-1.76-1.47-3.75,2.63-6,2.63-6Z"/><path class="cls-9" d="M369.18,247.44c-.16-8.4-6.24-9.14-6.24-9.14s-6.09-.74-6.35,7.61c-.2,6.41,1.59,23.89,2.44,31.67a4.61,4.61,0,0,0,3.64,4.23h0c1.85.22,3.43-1.2,3.69-3.34C367.3,270.9,369.31,253.89,369.18,247.44Z"/><path class="cls-9" d="M383.54,247.44c-.16-8.4-6.25-9.14-6.25-9.14s-6.09-.74-6.35,7.61c-.2,6.41,1.6,23.89,2.44,31.67a4.61,4.61,0,0,0,3.65,4.23h0c1.85.22,3.42-1.2,3.69-3.34C381.66,270.9,383.66,253.89,383.54,247.44Z"/><path class="cls-9" d="M366.46,277.82a3.58,3.58,0,0,0-7.16,0c-.17,3.5,1.71,30.24,1.71,30.24h4.42S366.62,281.32,366.46,277.82Z"/><path class="cls-9" d="M361.17,308.06s-7.69,3.43-8.6,3.87-1.29,1.31,1.07,1.31h9.81a1.83,1.83,0,0,0,2-1.63v-3.55Z"/><path class="cls-9" d="M380.24,275.44a3.57,3.57,0,0,0-6.87,2c.81,3.42,10,28.6,10,28.6l4.24-1.22S381.37,278.76,380.24,275.44Z"/><path class="cls-9" d="M378.73,206.18s4.59-.73,4.85,5.5c.23,5.45.78,13.48.92,16.8a2.5,2.5,0,0,1-2.37,2.29h0a2.48,2.48,0,0,1-2.9-1.57c-.77-3.22-2.5-11.09-3.68-16.41C374.22,206.71,378.73,206.18,378.73,206.18Z"/><path class="cls-9" d="M377.64,205.54l-.5-.15a25.45,25.45,0,0,0-14.72,0l-.51.15a1.88,1.88,0,0,0-1.15,1.61c-.8,5.47-.05,23.32.23,29.22.05,1.08.71,1.92,1.52,1.92H377c.8,0,1.46-.84,1.52-1.92.27-5.9,1-23.75.23-29.22A1.92,1.92,0,0,0,377.64,205.54Z"/><path class="cls-9" d="M382.77,242.85c-1.45-7.8-4.21-10.51-4.21-10.51H360.81s-2.62,3.75-4.06,11.55a2.83,2.83,0,0,0,1.27,2.9,23.63,23.63,0,0,0,23.08,0A5,5,0,0,0,382.77,242.85Z"/><rect class="cls-9" x="366.25" y="197.37" width="7.02" height="8.52"/><path class="cls-9" d="M373.07,200.3s-2,2.58-6.82,2.58v-3.67Z"/><path class="cls-9" d="M361.55,206.18s-4.59-.73-4.85,5.5c-.23,5.45-.78,13.48-.91,16.8a2.48,2.48,0,0,0,2.36,2.29h0a2.5,2.5,0,0,0,2.91-1.57c.76-3.22,2.5-11.09,3.67-16.41C366.07,206.71,361.55,206.18,361.55,206.18Z"/><path class="cls-9" d="M359,225.74s-2.9-1.31-4.93,4.58c-1.77,5.17-4.53,12.75-5.61,15.89a2,2,0,0,0,.93,2.51h0a2,2,0,0,0,2.44-1.1c1.48-3,5-10.23,7.37-15.15C361.94,226.86,359,225.74,359,225.74Z"/><path class="cls-9" d="M382.8,276.05c0-2,7.29-34.81-4-44.69h-18s-5,6.77-5,22.55.92,52.94.92,52.94h10.89l2.66-57.06s.95,20.08,1.81,27.21,7.84,29,7.84,29l9.64-2.58S382.8,278.05,382.8,276.05Z"/><path class="cls-9" d="M366.25,203.69s-7.2.61-9.55,4c-1.88,2.73-1.68,16.91-2.34,19.1s-8.66,17.23-5.88,19.39,4.29,2.91,5,2.16,2.66-5.58,2.66-5.58,13.12,1.71,21.25,1.71,9.45-4.27,8.79-7.27-.81-16.49-1.72-23.34-.81-7.66-11.24-10.2A10.07,10.07,0,0,1,366.25,203.69Z"/><path class="cls-9" d="M384.49,229.36s-.92,3-6.7.7c-5.05-2.06-12.58-5-15.65-6.23a2,2,0,0,1-1.28-2.35h0a2,2,0,0,1,2.43-1.11c3.21.84,11,3,16.26,4.41C385.56,226.42,384.49,229.36,384.49,229.36Z"/><path class="cls-9" d="M363.39,226.23A2.81,2.81,0,0,1,362,223.1a9.2,9.2,0,0,1,1.64-3.79c1.38-1.38,13.75,3.33,13.75,3.33s-.52-12.12,2.47-16.75c4.42,1.26,4.51,3.35,5.65,13.8s-.94,13.5-5.65,13.5C376.25,233.19,367.24,228.38,363.39,226.23Z"/><path class="cls-9" d="M361,307.65s-6,1.85-8.39,2.63a2,2,0,0,0-1.22,3h14.05v-5.18A4.89,4.89,0,0,1,361,307.65Z"/><path class="cls-9" d="M383.5,305.6s-6.49,5.36-7.25,6-.9,1.61,1.37,1l9.45-2.62a1.84,1.84,0,0,0,1.49-2.1l-.95-3.42Z"/><path class="cls-9" d="M383.21,305.25s-5.3,3.39-7.37,4.77a2,2,0,0,0-.39,3.18L389,309.45l-1.38-5A4.89,4.89,0,0,1,383.21,305.25Z"/><path class="cls-9" d="M356.33,222.85c0-.35,2.69-.29,2.69-.29s-3.61-.85-3.57-1.22,3.69.28,3.69.28-3.8-1.43-3.68-1.78,3.79.79,3.79.79-3.49-1.66-3.24-2,4.9,1.43,4.9,1.43-2.3-1.62-2.25-2,.65.08,1.65.51a14,14,0,0,1,3.24,2l-.63,3S356.31,223.21,356.33,222.85Z"/><path class="cls-9" d="M366.64,202h1.81a8,8,0,0,0,8-8v-3.65a5,5,0,0,0-5-5H369.3a5,5,0,0,0-5,5v9.31A2.36,2.36,0,0,0,366.64,202Z"/><path class="cls-9" d="M364.28,193.66s-3.16,4,0,4"/><path class="cls-9" d="M371.31,194.57s-2.09-2.3-1.6-7c-4,0-5.13,1-5.13,1s-2.48-2.15.71-4.79,11.3-2,12.47,3.32.5,10.72-4.6,13.3A7,7,0,0,0,371.31,194.57Z"/><line class="cls-9" x1="371.85" y1="193.29" x2="369.03" y2="195.21"/><line class="cls-9" x1="373.33" y1="196.37" x2="369.87" y2="199.96"/><path class="cls-9" d="M369.47,194.86h-6a4.11,4.11,0,0,0-.87,2.41c0,1.38,1.8,4.32,3.62,4.85a8.58,8.58,0,0,0,4.39-.42Z"/><path class="cls-9" d="M370.46,194.5a1.92,1.92,0,1,0,2.6-1.58A2.19,2.19,0,0,0,370.46,194.5Z"/><rect class="cls-10" x="226.06" y="235.91" width="230.36" height="85.02"/><rect class="cls-6" x="226.06" y="298.67" width="230.36" height="22.27"/><path class="cls-9" d="M278.72,244.18a13.54,13.54,0,0,1,.75,3.2c-.05.91-.36,2.71-.76,2.7s-.4-3.4-.64-3.55-1.45,1.84-1.5,2.3,1.2,3.61.86,3.7-1.6-1.38-2.26-3.2.89-4.58.89-4.58Z"/><path class="cls-9" d="M321,237a15.1,15.1,0,0,0,3.32.74c.95,0,2.83-.32,2.82-.7s-3.54-.41-3.69-.65,1.93-1.37,2.41-1.42,3.74,1.19,3.85.87-1.43-1.56-3.32-2.2-4.77.81-4.77.81Z"/><path class="cls-9" d="M274.73,222.38s-3.18.27-2.05,6.15c1,5.16,2.31,12.81,2.91,15.94a1.93,1.93,0,0,0,2,1.66h0a1.9,1.9,0,0,0,1.59-2.07c-.17-3.18-.67-10.91-1-16.15C277.82,221.94,274.73,222.38,274.73,222.38Z"/><path class="cls-9" d="M298.47,204.47l-.5-.14a26.41,26.41,0,0,0-14.72,0l-.51.15a1.83,1.83,0,0,0-1.15,1.54c-.79,5.26,0,22.4.23,28.06a1.75,1.75,0,0,0,1.52,1.84h14.53a1.75,1.75,0,0,0,1.52-1.84c.28-5.66,1-22.8.23-28.06A1.83,1.83,0,0,0,298.47,204.47Z"/><path class="cls-9" d="M278.2,274.89v-.12C278.09,274.5,278.18,274.88,278.2,274.89Z"/><path class="cls-9" d="M303.64,243.7a30.78,30.78,0,0,0-.54-5.59v0c-1.45-7.48-3.7-7.87-3.7-7.87h-18s-1.77.9-3.21,8.39L278,240a60.09,60.09,0,0,0-.54,7.09c-.13,7.88-.05,21.56.75,27.83.11,5.8,1.95,28,1.95,28h7.44s1.35-25.67,1.16-29v-.05c.49-3.42,1.2-8.47,1.82-13.54.62,5.07,1.33,10.12,1.82,13.54v.05c-.19,3.36,1.16,29,1.16,29H301s1.84-22.22,1.95-28C303.76,268.47,303.72,252.06,303.64,243.7Z"/><rect class="cls-9" x="288.45" y="196.62" width="7.02" height="8.18"/><path class="cls-9" d="M284.32,193.57a1.59,1.59,0,1,0,1.55-1.93A1.76,1.76,0,0,0,284.32,193.57Z"/><path class="cls-9" d="M296.51,193.57a1.59,1.59,0,1,0,1.56-1.93A1.77,1.77,0,0,0,296.51,193.57Z"/><path class="cls-9" d="M291.85,200.71h.24a6,6,0,0,0,6-6V189.6a4.94,4.94,0,0,0-4.93-4.92H290.8a4.94,4.94,0,0,0-4.93,4.92v5.14A6,6,0,0,0,291.85,200.71Z"/><path class="cls-9" d="M283.31,205.38s-4.29-1.71-6,4c-1.5,5-3.92,12.41-4.83,15.47a2.4,2.4,0,0,0,1.77,2.68h0a2.54,2.54,0,0,0,3.18-.81c1.5-2.84,5-9.79,7.43-14.5C287.58,206.89,283.31,205.38,283.31,205.38Z"/><path class="cls-9" d="M299.74,203.87s-4.51,1.06-2.34,6.67c1.9,4.91,4.52,12.23,5.67,15.21a2.53,2.53,0,0,0,3.08,1.15h0a2.41,2.41,0,0,0,2.06-2.47c-.54-3.14-2-10.75-3-15.9C304.11,202.66,299.74,203.87,299.74,203.87Z"/><path class="cls-9" d="M303.4,223s-2.55,2.15,2.75,5.32c4.63,2.76,11.72,6.65,14.54,8.33a2,2,0,0,0,2.65-.33h0a1.84,1.84,0,0,0-.52-2.52c-2.57-2-8.86-6.87-13.12-10.16C304.84,219.85,303.4,223,303.4,223Z"/><path class="cls-9" d="M288.45,202.93s-7.58,1.56-10.46,2.85-5.55,15.07-5.55,15.07l6.78,2.9L276.43,242a4.08,4.08,0,0,0,3.57,4.6,76.32,76.32,0,0,0,22-.15,4.1,4.1,0,0,0,3.44-4.28c-1.1-16.36-3.36-30.08-3.36-30.08l.86,11.63,6.56-2.4-2.72-15.61a4.91,4.91,0,0,0-3.82-2.75l-7.45-1A7.19,7.19,0,0,1,288.45,202.93Z"/><path class="cls-9" d="M282.57,302.91s-9.23,0-9.23,5H287.8l-.21-5"/><path class="cls-9" d="M298.57,302.91s9.23,0,9.23,5H293.34l.21-5"/><path class="cls-9" d="M291.65,201.41a7,7,0,0,0,6.43-4.17c2-4.38,2.93-8.74-.69-12.22a8,8,0,0,0-10.51-.51c-1.83,1.75-3.48,4.17-2.65,8.81S288.27,201.41,291.65,201.41Z"/><rect class="cls-9" x="205.72" y="199.96" width="54.18" height="98.51"/><rect class="cls-9" x="402.24" y="209.45" width="54.18" height="89.02"/></g><rect class="cls-11" x="72.65" y="318.45" width="413.89" height="16.98"/><rect class="cls-12" x="105.08" y="318.45" width="94.21" height="16.98"/><rect class="cls-13" x="98.66" y="335.43" width="107.06" height="16.6"/><rect class="cls-14" x="43.58" y="355.09" width="4.11" height="6.93"/><rect class="cls-14" x="80.17" y="355.09" width="4.11" height="6.93"/><rect class="cls-3" x="41.53" y="291.86" width="44.82" height="66.04"/><rect class="cls-4" x="43.91" y="294.25" width="40.06" height="61.27"/><rect class="cls-9" x="108.95" y="196.26" width="70" height="102.41"/><polygon class="cls-15" points="119.78 230.27 144.05 222.95 144.05 198.69 119.78 206 119.78 230.27"/><g class="cls-16"><path class="cls-4" d="M149.26,173.13v128l-34.69,10.59v-128l37.1-10.59m3.21-6.89L109,178.55v140l45.93-12.31v-140Z"/><path class="cls-4" d="M110.09,249h0c0,1.58.68,2.66,1.52,2.41l40.61-12.19c.84-.25,1.52-1.73,1.52-3.32h0c0-1.58-.68-2.66-1.52-2.41l-40.61,12.19C110.77,245.89,110.09,247.38,110.09,249Z"/></g><path class="cls-14" d="M38.71,139.74v29.37a68.59,68.59,0,0,0,53.53,0h0V139.74Z"/><path class="cls-14" d="M199.3,139.74v29.37l-.63.27a67,67,0,0,1-52.27,0l-.63-.27V139.74"/><path class="cls-14" d="M306.36,139.74v29.37h0a68.59,68.59,0,0,1-53.53,0h0V139.74"/><path class="cls-14" d="M413.41,139.74v29.37h0a68.59,68.59,0,0,1-53.53,0h0V139.74"/><path class="cls-14" d="M520.47,139.74v29.37h0a68.59,68.59,0,0,1-53.53,0h0V139.74"/><path class="cls-7" d="M145.77,139.74v29.37h0a68.59,68.59,0,0,1-53.53,0h0V139.74"/><path class="cls-7" d="M252.83,139.74v29.37h0a65.18,65.18,0,0,1-51,1l-2.54-1V139.74"/><path class="cls-7" d="M359.88,139.74v29.37h0a68.57,68.57,0,0,1-53.52,0h0V139.74"/><path class="cls-7" d="M466.94,139.74v29.37h0a68.59,68.59,0,0,1-53.53,0h0V139.74"/><polyline class="cls-3" points="38.72 139.74 77.24 84.42 122.21 84.42 92.24 139.74"/><polyline class="cls-3" points="466.94 139.74 436.98 84.42 481.94 84.42 520.47 139.74"/><polyline class="cls-10" points="92.24 139.74 122.21 84.42 167.17 84.42 145.77 139.74"/><polyline class="cls-3" points="145.77 139.74 167.17 84.42 212.14 84.42 199.3 139.74"/><polyline class="cls-10" points="199.3 139.74 212.14 84.42 257.11 84.42 252.83 139.74"/><polyline class="cls-3" points="252.83 139.74 257.11 84.42 302.07 84.42 306.36 139.74"/><polyline class="cls-10" points="306.36 139.74 302.07 84.42 347.04 84.42 359.88 139.74"/><polyline class="cls-3" points="359.88 139.74 347.04 84.42 392.01 84.42 413.41 139.74"/><polyline class="cls-10" points="413.41 139.74 392.01 84.42 436.98 84.42 466.94 139.74"/><rect class="cls-11" x="77.24" y="69.52" width="404.7" height="14.9"/><rect class="cls-15" y="17.87" width="63.93" height="63.93" rx="11.17"/><rect class="cls-4" x="4.52" y="22.38" width="54.9" height="54.9" rx="8.56"/><rect class="cls-11" x="77.24" y="15.95" width="404.7" height="14.9"/></svg>